<?xml version="1.0" encoding="UTF-8"?><svg id="Layer_2" xmlns="http://www.w3.org/2000/svg" fill="white"  width="224.13" height="224.13" viewBox="0 0 224.13 224.13"><defs><style>.cls-1{}</style></defs><g id="artwork"><path class="cls-1" d="m112.06,224.13C50.27,224.13,0,173.86,0,112.06S50.27,0,112.06,0s112.06,50.27,112.06,112.06-50.27,112.06-112.06,112.06Zm0-221.13C51.93,3,3,51.93,3,112.06s48.93,109.06,109.06,109.06,109.06-48.93,109.06-109.06S172.2,3,112.06,3Z"/><path class="cls-1" d="m222.63,113.56H1.5c-.83,0-1.5-.67-1.5-1.5s.67-1.5,1.5-1.5h221.13c.83,0,1.5.67,1.5,1.5s-.67,1.5-1.5,1.5Z"/><path class="cls-1" d="m208.91,60.87H16.02c-.83,0-1.5-.67-1.5-1.5s.67-1.5,1.5-1.5h192.89c.83,0,1.5.67,1.5,1.5s-.67,1.5-1.5,1.5Z"/><path class="cls-1" d="m208.91,163.54H13.53c-.83,0-1.5-.67-1.5-1.5s.67-1.5,1.5-1.5h195.38c.83,0,1.5.67,1.5,1.5s-.67,1.5-1.5,1.5Z"/><path class="cls-1" d="m112.06,224.13c-.31,0-.62-.09-.88-.28-.15-.1-14.72-10.68-29.05-29.62-13.25-17.5-29.04-45.97-29.04-82.16s13.46-64.25,24.75-81.45C90.08,11.96,102.14,2,102.65,1.59c.64-.52,1.59-.43,2.11.21.52.64.43,1.59-.21,2.11-.48.4-48.45,40.44-48.45,108.15,0,59.62,43.69,98.75,54.47,107.49V1.5c0-.83.67-1.5,1.5-1.5s1.5.67,1.5,1.5v221.13c0,.56-.31,1.08-.82,1.33-.22.11-.45.17-.68.17Z"/><path class="cls-1" d="m112.07,224.13c-.47,0-.93-.22-1.22-.62-.48-.67-.33-1.61.34-2.09.57-.41,56.84-41.68,56.84-109.35S119.93,4.31,119.45,3.91c-.64-.52-.74-1.47-.21-2.11s1.47-.74,2.11-.21c.51.42,12.6,10.37,24.87,29.02,11.32,17.21,24.81,45.31,24.81,81.46s-15.79,64.66-29.04,82.16c-14.34,18.94-28.91,29.52-29.05,29.62-.27.19-.57.28-.87.28Z"/></g></svg>